<svg width="35" height="38" viewBox="0 0 35 38" fill="none" xmlns="http://www.w3.org/2000/svg">
<path d="M6 35C6 36.6569 4.65685 38 3 38C1.34315 38 0 36.6569 0 35C0 33.3431 1.34315 32 3 32C4.65685 32 6 33.3431 6 35Z" fill="#C936D9"/>
<path d="M35 35C35 36.6569 33.6569 38 32 38C30.3431 38 29 36.6569 29 35C29 33.3431 30.3431 32 32 32C33.6569 32 35 33.3431 35 35Z" fill="#C936D9"/>
<path d="M13 22C13 23.6569 11.6569 25 10 25C8.34315 25 7 23.6569 7 22C7 20.3431 8.34315 19 10 19C11.6569 19 13 20.3431 13 22Z" fill="#C936D9"/>
<path d="M29 22C29 23.6569 27.6569 25 26 25C24.3431 25 23 23.6569 23 22C23 20.3431 24.3431 19 26 19C27.6569 19 29 20.3431 29 22Z" fill="#C936D9"/>
<path d="M20 3C20 4.65685 18.6569 6 17 6C15.3431 6 14 4.65685 14 3C14 1.34315 15.3431 0 17 0C18.6569 0 20 1.34315 20 3Z" fill="#C936D9"/>
<path d="M20 35C20 36.6569 18.6569 38 17 38C15.3431 38 14 36.6569 14 35C14 33.3431 15.3431 32 17 32C18.6569 32 20 33.3431 20 35Z" fill="#C936D9"/>
</svg>
